<mxfile host="app.diagrams.net" modified="2023-12-12T04:09:04.934Z" agent="Mozilla/5.0 (X11; Linux x86_64) AppleWebKit/537.36 (KHTML, like Gecko) Chrome/76.0.3809.132 Safari/537.36" version="22.1.7" etag="CQLGXBOdI5fHKmazRAwL" type="github">
  <diagram name="第 1 页" id="Br3wT3KurCzuZpBePUkO">
    <mxGraphModel>
      <root>
        <mxCell id="0" />
        <mxCell id="1" parent="0" />
      </root>
    </mxGraphModel>
  </diagram>
</mxfile>
